<svg width="22" height="22" viewBox="0 0 22 22" fill="none" xmlns="http://www.w3.org/2000/svg">
<path fill-rule="evenodd" clip-rule="evenodd" d="M2.75 10.7525C2.75 6.15428 6.35253 2.75 11 2.75C15.6475 2.75 19.25 6.15428 19.25 10.7525C19.25 15.3507 15.6475 18.755 11 18.755C10.1652 18.755 9.36436 18.6448 8.61187 18.4379C8.4656 18.3976 8.31005 18.409 8.17124 18.4702L6.53373 19.1931C6.10539 19.3822 5.62187 19.0776 5.60752 18.6095L5.56259 17.142C5.55706 16.9611 5.47572 16.7922 5.34096 16.6715C3.73571 15.236 2.75 13.1577 2.75 10.7525ZM8.46935 9.24796L6.04591 13.0928C5.81334 13.4618 6.26689 13.8776 6.61433 13.6139L9.21751 11.6383C9.39359 11.5046 9.63694 11.5039 9.81377 11.6366L11.7413 13.0822C12.3197 13.516 13.1452 13.3637 13.5307 12.7521L15.9541 8.90721C16.1866 8.53822 15.7331 8.12242 15.3857 8.38609L12.7825 10.3617C12.6064 10.4954 12.3631 10.4961 12.1862 10.3634L10.2587 8.9178C9.68033 8.48401 8.85484 8.63631 8.46935 9.24796Z" fill="#173817"/>
</svg>
