<svg width="22" height="22" viewBox="0 0 22 22" fill="none" xmlns="http://www.w3.org/2000/svg">
<path d="M18.2897 7.26008C18.3009 7.42171 18.3009 7.58333 18.3009 7.74644C18.3009 12.7165 14.5173 18.4485 7.59883 18.4485V18.4455C5.55509 18.4485 3.55381 17.8631 1.83331 16.7593C2.13049 16.7951 2.42916 16.8129 2.72857 16.8137C4.42225 16.8152 6.06752 16.2469 7.39997 15.2004C5.79045 15.1699 4.37905 14.1205 3.88599 12.5884C4.44981 12.6971 5.03075 12.6748 5.58414 12.5236C3.82939 12.1691 2.56694 10.6273 2.56694 8.83683C2.56694 8.82045 2.56694 8.80481 2.56694 8.78917C3.0898 9.08038 3.67521 9.24201 4.27403 9.25988C2.62131 8.15534 2.11187 5.95668 3.10991 4.23767C5.01958 6.58753 7.83717 8.01606 10.8618 8.16726C10.5587 6.86087 10.9728 5.49192 11.95 4.57358C13.4649 3.14952 15.8475 3.22251 17.2716 4.73669C18.114 4.5706 18.9213 4.26151 19.6602 3.82356C19.3794 4.69424 18.7917 5.43383 18.0067 5.9038C18.7523 5.81591 19.4807 5.6163 20.1666 5.31168C19.6617 6.0684 19.0256 6.72755 18.2897 7.26008Z" fill="#173817"/>
</svg>
